<svg xmlns="http://www.w3.org/2000/svg" width="768" viewBox="0 0 768 768" height="768" version="1.0"><defs><clipPath id="a"><path d="M 265 442 L 678 442 L 678 718 L 265 718 Z M 265 442"/></clipPath><clipPath id="b"><path d="M 258.644531 622.042969 L 615.414062 383.808594 L 733.699219 560.945312 L 376.929688 799.179688 Z M 258.644531 622.042969"/></clipPath><clipPath id="c"><path d="M 258.644531 622.042969 L 615.414062 383.808594 L 733.699219 560.945312 L 376.929688 799.179688 Z M 258.644531 622.042969"/></clipPath><clipPath id="d"><path d="M 80 57 L 491 57 L 491 304 L 80 304 Z M 80 57"/></clipPath><clipPath id="e"><path d="M 29.570312 175.679688 L 434.40625 -20.8125 L 504.488281 123.582031 L 99.652344 320.070312 Z M 29.570312 175.679688"/></clipPath><clipPath id="f"><path d="M 434.320312 -20.769531 L 29.484375 175.71875 L 99.566406 320.109375 L 504.402344 123.621094 Z M 434.320312 -20.769531"/></clipPath></defs><path fill="#FFF" d="M-76.8 -76.8H844.8000000000001V844.8000000000001H-76.8z"/><path fill="#FFF" d="M-76.8 -76.8H844.8000000000001V844.8000000000001H-76.8z"/><path fill="#FFF" d="M-76.8 -76.8H844.8000000000001V844.8000000000001H-76.8z"/><g clip-path="url(#a)"><g clip-path="url(#b)"><g clip-path="url(#c)"><path d="M 643.476562 560.433594 C 632.683594 577.390625 622.859375 593.046875 612.804688 608.558594 C 609.34375 613.890625 605.65625 619.179688 601.457031 623.949219 C 584.792969 643.023438 566.929688 660.894531 546.550781 676.078125 C 502.222656 709.0625 452.667969 724.09375 397.792969 715.035156 C 347.351562 706.726562 306.644531 680.066406 273.269531 641.878906 C 266.855469 634.535156 264.585938 627.058594 265.242188 618.3125 C 270.523438 622.535156 275.28125 625.921875 279.539062 629.84375 C 297.785156 646.648438 318.109375 660.03125 341.320312 669.191406 C 381.539062 685.046875 421.980469 684.769531 462.617188 671.617188 C 472.0625 668.5625 481.011719 663.929688 490.335938 660.398438 C 539.402344 641.6875 570.902344 603.546875 599.089844 561.875 C 607.257812 549.785156 614.300781 536.941406 621.777344 524.398438 C 623.167969 522.058594 624.164062 519.519531 623.859375 515.523438 C 607.609375 527.851562 591.367188 540.140625 575.285156 552.324219 C 565.871094 548.398438 561.316406 541.425781 557.128906 533.878906 C 554.6875 529.4375 554.859375 526.105469 558.65625 522.550781 C 565.929688 515.757812 572.804688 508.507812 580.113281 501.757812 C 600.488281 482.933594 621.015625 464.234375 641.503906 445.53125 C 642.78125 444.347656 644.300781 443.429688 645.890625 442.273438 C 653.21875 445.09375 658.933594 449.222656 661.492188 457.035156 C 662.234375 459.328125 663.675781 461.585938 665.328125 463.371094 C 672.125 470.75 674.027344 479.492188 672.515625 489.074219 C 670.191406 503.824219 667.441406 518.527344 665.230469 533.300781 C 664.070312 541.003906 663.300781 548.839844 663.171875 556.609375 C 663.007812 565.351562 665.800781 573.273438 671.355469 580.363281 C 675.484375 585.617188 679.125 591.457031 676.277344 598.449219 C 671.84375 600.65625 669.421875 598.203125 667.496094 595.710938 C 661.421875 587.847656 655.511719 579.878906 649.789062 571.75 C 647.511719 568.640625 645.988281 565.027344 643.476562 560.433594 Z M 643.476562 560.433594"/></g></g></g><g clip-path="url(#d)"><g clip-path="url(#e)"><g clip-path="url(#f)"><path d="M 489.117188 109.105469 C 493.257812 101.9375 489.546875 97.632812 485.597656 93.71875 C 474.71875 82.851562 462.300781 74.347656 447.40625 69.683594 C 399.949219 54.867188 351.703125 53.710938 303.316406 63.570312 C 253.703125 73.667969 211.363281 97.289062 178.027344 135.800781 C 162.347656 153.925781 147.644531 172.917969 131.96875 192.183594 C 131.636719 189.625 130.945312 186.496094 130.8125 183.292969 C 129.769531 161.546875 127.042969 157.632812 106.371094 150.097656 C 101.757812 148.398438 96.847656 147.554688 90.785156 145.964844 C 90.28125 150.78125 89.824219 154.230469 89.574219 157.699219 C 86.796875 195.003906 84.6875 232.378906 80.847656 269.609375 C 79.9375 278.636719 82.921875 283.804688 88.59375 288.335938 C 100.035156 297.433594 114.152344 301.058594 128.109375 303.304688 C 132.988281 304.085938 139.394531 299.953125 144.179688 296.722656 C 179.171875 272.929688 216.023438 252.558594 255.417969 237.183594 C 267.703125 232.402344 280.695312 229.480469 294.480469 225.351562 C 294.058594 220.90625 289.699219 217.863281 285.746094 215.410156 C 267.175781 203.90625 247.679688 196.277344 225.300781 203.515625 C 214.730469 206.953125 204.148438 210.277344 193.625 213.808594 C 188.9375 215.375 184.402344 217.417969 178.738281 219.65625 C 188.316406 187.910156 267.003906 123.765625 314.898438 107.6875 C 373.140625 88.125 431.417969 89.769531 489.117188 109.105469 Z M 489.117188 109.105469"/></g></g></g></svg>